<svg xmlns="http://www.w3.org/2000/svg" viewBox="0 0 206.77 138.36"><defs><style>.cls-1{fill:#e7cba3;}.cls-1,.cls-10,.cls-2,.cls-3,.cls-4,.cls-5,.cls-6,.cls-7,.cls-8{stroke:#231f20;stroke-miterlimit:10;}.cls-2{fill:#bce5f1;}.cls-3{fill:#cbccce;}.cls-4{fill:#fcd3c3;}.cls-5{fill:none;}.cls-10,.cls-6{fill:#231f20;}.cls-6{stroke-width:0.5px;}.cls-7{fill:#e6e7e8;}.cls-8{fill:#fbb040;stroke-width:0.75px;}.cls-9{fill:#ffdb00;}</style></defs><title>smilingmac</title><g id="background"><polygon class="cls-1" points="206.27 106.82 0.5 72.77 0.5 137.86 206.27 137.86 206.27 106.82"/><polygon class="cls-2" points="0.5 0.5 0.5 73.12 206.27 106.48 206.27 0.5 0.5 0.5"/></g><g id="computer"><path class="cls-3" d="M90.11,11.7l82.6.85s5.82-.42,4.87,4.44c-1.16,6-13.13,72.65-13.13,72.65s0,5.72-7.63,4.66S76.21,81.16,76.21,81.16s-5.28-.73-3.36-8.19c2-7.77,12.88-56,12.88-56S86.63,11.66,90.11,11.7Z" transform="translate(-4.61 -2.27)"/><polygon class="cls-4" points="84.93 14.29 73.93 62.1 156.55 72.43 168 15.41 84.93 14.29"/><polygon class="cls-5" points="84.93 14.28 73.93 62.09 156.55 72.43 168 15.41 84.93 14.28"/><path class="cls-6" d="M114.1,76.54s-1.49-.21-1.74,2.14.8,2.49,1.16,2.37,1.13-.35,1.55.27,1.54-1.26,1.54-1.26-.8-.16-.61-1.16.51-1.41,1-1.41c0,0-.28-1-1.59-.47,0,0-.45.22-.66-.15A.68.68,0,0,0,114.1,76.54Z" transform="translate(-4.61 -2.27)"/><path class="cls-6" d="M116.36,75.12a.94.94,0,0,0-.69.43c-.3.41-.27.57-.27.57a1.61,1.61,0,0,0,.62-.37A1.5,1.5,0,0,0,116.36,75.12Z" transform="translate(-4.61 -2.27)"/><path class="cls-3" d="M120.84,88.51a7.91,7.91,0,0,1-.86,6.57,5.4,5.4,0,0,1-3.08,2.18l-14.74,4.09s-2.71,1.6,0,2.31,23.42,5,23.42,5a11.74,11.74,0,0,0,5.12-.5c1.69-.63,6.37-3.08,9-4.49a7.4,7.4,0,0,0,3.79-4.78,12.49,12.49,0,0,0-.4-6.75Z" transform="translate(-4.61 -2.27)"/><path class="cls-7" d="M163.54,119.24s-1.22-1.44-6.91-1.65a21.93,21.93,0,0,0-5.64.34,1.48,1.48,0,0,0-1.11,1.72l1,5.28s.15,2.95,7.2,2.81a20.46,20.46,0,0,0,5-.59,3.21,3.21,0,0,0,2.36-3.25C165.32,122.43,165,120.39,163.54,119.24Z" transform="translate(-4.61 -2.27)"/><path class="cls-3" d="M76.4,103.52l-15,6.08s-1.08.72,1.19,1.2,48.45,11,48.45,11a5.81,5.81,0,0,0,3.72-.48c2.54-1.22,10.88-4.85,10.88-4.85a.53.53,0,0,0,.45-.4,18.74,18.74,0,0,0,0-2.07s0-.24-.58-.38C124.58,113.46,76.4,103.52,76.4,103.52Z" transform="translate(-4.61 -2.27)"/><path class="cls-7" d="M64.26,109.35l47.24,10.58a2.53,2.53,0,0,0,1.65-.17l12.13-5.5c.33-.15.38-.54,0-.62L77.64,104a2.53,2.53,0,0,0-1.44.12l-12,4.52A.38.38,0,0,0,64.26,109.35Z" transform="translate(-4.61 -2.27)"/><polyline class="cls-8" points="152.02 115.32 152.65 118.45 152.02 115.32"/><path class="cls-9" d="M145.13,43.87A20.93,20.93,0,0,1,122,62.36c-11.49-1.27-19.44-10.58-17.76-20.79s12-18.49,23.1-18.49S146.41,32.39,145.13,43.87Z" transform="translate(-4.61 -2.27)"/><path class="cls-5" d="M145.13,43.87A20.93,20.93,0,0,1,122,62.36c-11.49-1.27-19.44-10.58-17.76-20.79s12-18.49,23.1-18.49S146.41,32.39,145.13,43.87Z" transform="translate(-4.61 -2.27)"/><ellipse class="cls-10" cx="117.6" cy="36.73" rx="3.14" ry="1.14" transform="translate(51.77 141.38) rotate(-77.55)"/><ellipse class="cls-10" cx="130.38" cy="37.7" rx="3.34" ry="1.21" transform="translate(60.86 154.62) rotate(-77.55)"/><path class="cls-5" d="M110.32,43.87a11.6,11.6,0,0,0,10.26,10.6c12.55,1.92,16.86-8.26,16.86-8.26" transform="translate(-4.61 -2.27)"/><path class="cls-7" d="M32.38,68.07l3.87,26.5a1.65,1.65,0,0,0,.85,1.23,15.49,15.49,0,0,0,14.11.64,2.62,2.62,0,0,0,1.53-2c.91-5.49,4.39-26.42,4.39-26.42Z" transform="translate(-4.61 -2.27)"/><path class="cls-3" d="M58.46,65.69c0,2.27-5.65,4.3-13.71,4.3S30.81,68.38,30.81,66.1a7.82,7.82,0,0,1,1.31-3.29c1.4-2.42,7.17-1,12.63-1s11.71-1.24,12.78,1.34A16.05,16.05,0,0,1,58.46,65.69Z" transform="translate(-4.61 -2.27)"/><ellipse class="cls-7" cx="40.14" cy="61.17" rx="12.83" ry="3.62"/><ellipse class="cls-3" cx="40.06" cy="60.77" rx="9.65" ry="1.67"/><path class="cls-1" d="M33.28,74.22s9.82,4.43,22.82,0L54.19,85.76s-8,5.27-19.23,0Z" transform="translate(-4.61 -2.27)"/></g></svg>